<svg xmlns="http://www.w3.org/2000/svg" width="22" height="20" viewBox="0 0 22 20">
  <metadata><?xpacket begin="﻿" id="W5M0MpCehiHzreSzNTczkc9d"?>
<x:xmpmeta xmlns:x="adobe:ns:meta/" x:xmptk="Adobe XMP Core 5.6-c142 79.160924, 2017/07/13-01:06:39        ">
   <rdf:RDF xmlns:rdf="http://www.w3.org/1999/02/22-rdf-syntax-ns#">
      <rdf:Description rdf:about=""/>
   </rdf:RDF>
</x:xmpmeta>
                                                                                                    
                                                                                                    
                                                                                                    
                                                                                                    
                                                                                                    
                                                                                                    
                                                                                                    
                                                                                                    
                                                                                                    
                                                                                                    
                                                                                                    
                                                                                                    
                                                                                                    
                                                                                                    
                                                                                                    
                                                                                                    
                                                                                                    
                                                                                                    
                                                                                                    
                                                                                                    
                           
<?xpacket end="w"?></metadata>
<defs>
    <style>
      .cls-1 {
        fill: #29282d;
        fill-rule: evenodd;
      }
    </style>
  </defs>
  <path id="cart_icon" class="cls-1" d="M17.436,20a2.724,2.724,0,1,1,2.744-2.724A2.737,2.737,0,0,1,17.436,20Zm0-3.814a1.09,1.09,0,1,0,1.1,1.09A1.095,1.095,0,0,0,17.436,16.183Zm1.756-2.806H6.379a0.822,0.822,0,0,1-.8-0.627L2.9,1.634H0.837A0.817,0.817,0,1,1,.837,0H3.553a0.823,0.823,0,0,1,.8.627L5.094,3.7h16.1a0.825,0.825,0,0,1,.648.314,0.815,0.815,0,0,1,.151.7l-2,8.038A0.823,0.823,0,0,1,19.192,13.377ZM7.029,11.742H18.548l1.6-6.4H5.488ZM7.476,20a2.724,2.724,0,1,1,2.744-2.724A2.737,2.737,0,0,1,7.476,20Zm0-3.814a1.09,1.09,0,1,0,1.1,1.09A1.095,1.095,0,0,0,7.476,16.183Z"/>
</svg>
