<svg xmlns="http://www.w3.org/2000/svg" width="21" height="20" viewBox="0 0 21 20">
  <metadata><?xpacket begin="﻿" id="W5M0MpCehiHzreSzNTczkc9d"?>
<x:xmpmeta xmlns:x="adobe:ns:meta/" x:xmptk="Adobe XMP Core 5.6-c142 79.160924, 2017/07/13-01:06:39        ">
   <rdf:RDF xmlns:rdf="http://www.w3.org/1999/02/22-rdf-syntax-ns#">
      <rdf:Description rdf:about=""/>
   </rdf:RDF>
</x:xmpmeta>
                                                                                                    
                                                                                                    
                                                                                                    
                                                                                                    
                                                                                                    
                                                                                                    
                                                                                                    
                                                                                                    
                                                                                                    
                                                                                                    
                                                                                                    
                                                                                                    
                                                                                                    
                                                                                                    
                                                                                                    
                                                                                                    
                                                                                                    
                                                                                                    
                                                                                                    
                                                                                                    
                           
<?xpacket end="w"?></metadata>
<defs>
    <style>
      .cls-1 {
        fill: #29282d;
        fill-rule: evenodd;
      }
    </style>
  </defs>
  <path id="heart_icon" class="cls-1" d="M19.778,4.589A6.689,6.689,0,0,0,15.605.218c-1.7-.595-3.747,0-5.578,1.611C8.2,0.26,6.152-.292,4.449.26A6.89,6.89,0,0,0,.276,4.631C-0.192,6.2-.235,8.748,2.235,11.846c1.107,1.4,2.81,3.4,4.216,4.966,2.683,3.014,3.108,3.183,3.492,3.183h0.17c0.383,0,.767-0.168,3.449-3.224,1.405-1.613,3.108-3.609,4.216-4.966C20.247,8.706,20.247,6.159,19.778,4.589Zm-3.279,6.2c-1.959,2.462-5.323,6.324-6.472,7.385-1.15-1.061-4.514-4.924-6.472-7.385C1.937,8.79,1.341,6.838,1.852,5.1A4.993,4.993,0,0,1,4.96,1.873c1.235-.467,2.9.169,4.429,1.655a0.846,0.846,0,0,0,1.064.126,0.418,0.418,0,0,0,.213-0.17C12.2,2.042,13.86,1.406,15.094,1.829A5.175,5.175,0,0,1,18.2,5.1C18.714,6.8,18.118,8.79,16.5,10.784Z"/>
</svg>
