<svg 
 xmlns="http://www.w3.org/2000/svg"
 xmlns:xlink="http://www.w3.org/1999/xlink"
 width="15px" height="15px">
<path fill-rule="evenodd"  fill="rgb(255, 255, 255)"
 d="M11.008,9.681 C11.746,8.674 12.187,7.435 12.187,6.093 C12.187,2.733 9.453,-0.001 6.094,-0.001 C2.734,-0.001 -0.000,2.733 -0.000,6.093 C-0.000,9.453 2.734,12.187 6.094,12.187 C7.436,12.187 8.674,11.745 9.682,11.007 L13.674,15.000 L15.000,13.673 L11.008,9.681 L11.008,9.681 ZM6.094,10.312 C3.767,10.312 1.875,8.419 1.875,6.093 C1.875,3.767 3.767,1.874 6.094,1.874 C8.420,1.874 10.312,3.767 10.312,6.093 C10.312,8.419 8.420,10.312 6.094,10.312 L6.094,10.312 Z"/>
</svg>                                                                                     
                                                                                                    
                                                                                                    
                                                                                                    
                                                                                                    
                                                                                                    
                                                                                                    
                                                                                                    
                                                                                                    
                                                                                                    
                                                                                                    
                                                                                                    
                                                                                                    
                                                                                                    
                                                                                                    
                                                                                                    
                                                                                                    
                                                                                                    
                                                                                                    
                                                                                                    
                           
<?xpacket end="w"?></metadata>
<defs>
    <style>
      .cls-1 {
        fill: #29282d;
        fill-rule: evenodd;
      }
    </style>
  </defs>
  <path id="search" class="cls-1" d="M19.892,18.7l-5.81-5.81A7.93,7.93,0,1,0,12.9,14.065l5.81,5.81a0.416,0.416,0,0,0,.589,0l0.589-.589A0.416,0.416,0,0,0,19.892,18.7ZM7.931,14.163a6.25,6.25,0,1,1,6.25-6.25A6.257,6.257,0,0,1,7.931,14.163Z"/>
</svg>
